<svg width="179" height="19" fill="none" xmlns="http://www.w3.org/2000/svg"><path d="M5.869 18.24c-.736 0-1.4-.048-1.992-.144a9.581 9.581 0 0 1-1.584-.384 6.964 6.964 0 0 1-2.04-1.08v-2.568c.24.192.552.392.936.6.4.192.84.368 1.32.528.496.16 1.024.296 1.584.408.56.096 1.136.144 1.728.144 1.152 0 2.072-.184 2.76-.552.688-.368 1.032-.976 1.032-1.824 0-.448-.088-.816-.264-1.104a2.09 2.09 0 0 0-.768-.72c-.32-.208-.72-.376-1.2-.504a31.73 31.73 0 0 0-1.608-.432 22.83 22.83 0 0 1-1.968-.576 7.097 7.097 0 0 1-1.776-.888 4.799 4.799 0 0 1-1.272-1.44c-.32-.592-.48-1.336-.48-2.232 0-1.584.568-2.792 1.704-3.624C3.117 1 4.749.576 6.877.576c.624 0 1.176.04 1.656.12.48.064.912.152 1.296.264.384.096.712.208.984.336.288.112.536.224.744.336V4.2c-1.152-.752-2.688-1.128-4.608-1.128-1.344 0-2.312.2-2.904.6-.576.384-.864.92-.864 1.608 0 .432.096.792.288 1.08.192.272.456.504.792.696.336.176.72.328 1.152.456.432.112.888.224 1.368.336.672.16 1.352.344 2.04.552a6.38 6.38 0 0 1 1.848.888c.56.368 1.016.856 1.368 1.464.352.592.528 1.368.528 2.328 0 .992-.192 1.816-.576 2.472a4.419 4.419 0 0 1-1.488 1.584c-.624.4-1.336.688-2.136.864-.8.16-1.632.24-2.496.24Zm14.982 0c-1.008 0-1.912-.144-2.712-.432a5.885 5.885 0 0 1-2.04-1.272 5.71 5.71 0 0 1-1.296-2.04c-.304-.8-.456-1.712-.456-2.736 0-1.008.152-1.912.456-2.712.304-.8.736-1.472 1.296-2.016.56-.56 1.248-.984 2.064-1.272.816-.304 1.728-.456 2.736-.456.864 0 1.616.096 2.256.288.656.192 1.176.432 1.56.72v2.304a6.308 6.308 0 0 0-1.632-.744c-.576-.176-1.248-.264-2.016-.264-2.576 0-3.864 1.384-3.864 4.152 0 2.768 1.264 4.152 3.792 4.152.816 0 1.512-.088 2.088-.264a8.399 8.399 0 0 0 1.632-.72v2.304c-.416.272-.936.512-1.56.72-.624.192-1.392.288-2.304.288ZM33.46 7.608c-.816 0-1.488.176-2.016.528-.528.336-.96.776-1.296 1.32V18h-2.784V.792h2.784V5.4l-.024 2.184h.024c.352-.64.864-1.176 1.536-1.608.672-.448 1.536-.672 2.592-.672 1.216 0 2.208.328 2.976.984.784.656 1.176 1.656 1.176 3V18H35.62V9.576c0-.72-.192-1.224-.576-1.512-.384-.304-.912-.456-1.584-.456ZM47.054 18.24c-.88 0-1.696-.144-2.448-.432a5.734 5.734 0 0 1-1.968-1.248 6.183 6.183 0 0 1-1.296-2.04c-.304-.8-.456-1.72-.456-2.76 0-1.04.152-1.96.456-2.76.32-.8.752-1.472 1.296-2.016a5.296 5.296 0 0 1 1.968-1.248 6.788 6.788 0 0 1 2.448-.432c.88 0 1.696.144 2.448.432a5.296 5.296 0 0 1 1.968 1.248c.56.544 1 1.216 1.32 2.016.32.8.48 1.72.48 2.76 0 1.04-.16 1.96-.48 2.76-.32.8-.76 1.48-1.32 2.04-.56.544-1.216.96-1.968 1.248a6.788 6.788 0 0 1-2.448.432Zm0-2.328c.96 0 1.752-.336 2.376-1.008.64-.672.96-1.72.96-3.144 0-1.408-.32-2.448-.96-3.12-.624-.688-1.416-1.032-2.376-1.032-.944 0-1.736.344-2.376 1.032-.624.672-.936 1.712-.936 3.12 0 1.424.312 2.472.936 3.144.64.672 1.432 1.008 2.376 1.008Zm14.195 2.328c-.88 0-1.696-.144-2.448-.432a5.734 5.734 0 0 1-1.968-1.248 6.183 6.183 0 0 1-1.296-2.04c-.304-.8-.456-1.72-.456-2.76 0-1.04.152-1.96.456-2.76.32-.8.752-1.472 1.296-2.016a5.296 5.296 0 0 1 1.968-1.248 6.788 6.788 0 0 1 2.448-.432c.88 0 1.696.144 2.448.432a5.296 5.296 0 0 1 1.968 1.248c.56.544 1 1.216 1.32 2.016.32.8.48 1.72.48 2.76 0 1.04-.16 1.96-.48 2.76-.32.8-.76 1.48-1.32 2.04-.56.544-1.216.96-1.968 1.248a6.788 6.788 0 0 1-2.448.432Zm0-2.328c.96 0 1.752-.336 2.376-1.008.64-.672.96-1.72.96-3.144 0-1.408-.32-2.448-.96-3.12-.624-.688-1.416-1.032-2.376-1.032-.944 0-1.736.344-2.376 1.032-.624.672-.936 1.712-.936 3.12 0 1.424.312 2.472.936 3.144.64.672 1.432 1.008 2.376 1.008ZM72.83.792V18h-2.785V.792h2.784ZM89.811 18.24c-1.328 0-2.528-.2-3.6-.6a7.773 7.773 0 0 1-2.76-1.728c-.752-.768-1.336-1.696-1.752-2.784-.4-1.104-.6-2.344-.6-3.72 0-1.392.192-2.632.576-3.72.4-1.088.968-2.008 1.704-2.76.752-.768 1.664-1.352 2.736-1.752 1.072-.4 2.296-.6 3.672-.6 1.184 0 2.192.12 3.024.36.848.224 1.52.488 2.016.792V4.32c-.624-.4-1.376-.704-2.256-.912a10.668 10.668 0 0 0-2.688-.336c-1.936 0-3.376.528-4.32 1.584-.928 1.04-1.392 2.624-1.392 4.752 0 4.224 1.952 6.336 5.856 6.336.912 0 1.768-.112 2.568-.336a6.991 6.991 0 0 0 2.232-1.056v2.568c-.448.336-1.096.64-1.944.912-.848.272-1.872.408-3.072.408ZM101.08.792V18h-2.904V.792h2.904Zm13.272 17.448a7.989 7.989 0 0 1-1.704-.168 8.226 8.226 0 0 1-1.32-.36 6.348 6.348 0 0 1-.984-.456 6.72 6.72 0 0 1-.624-.432v-2.208c.16.144.376.304.648.48.288.16.616.32.984.48a8.228 8.228 0 0 0 2.904.504c.88 0 1.52-.128 1.92-.384.416-.272.624-.664.624-1.176 0-.336-.08-.6-.24-.792a1.633 1.633 0 0 0-.648-.456 3.826 3.826 0 0 0-.96-.24c-.352-.064-.72-.136-1.104-.216a16.754 16.754 0 0 1-1.488-.36c-.48-.16-.92-.376-1.32-.648a3.392 3.392 0 0 1-.96-1.056c-.24-.432-.36-.984-.36-1.656 0-1.184.44-2.112 1.32-2.784.88-.672 2.136-1.008 3.768-1.008.928 0 1.728.096 2.4.288.688.192 1.192.392 1.512.6V8.4c-.384-.256-.88-.48-1.488-.672-.608-.192-1.376-.288-2.304-.288-.912 0-1.576.12-1.992.36-.416.24-.624.616-.624 1.128 0 .288.072.52.216.696.16.16.36.288.6.384.256.096.544.176.864.24.336.048.68.104 1.031.168.497.096 1.001.216 1.513.36a4.2 4.2 0 0 1 1.416.624c.432.272.784.64 1.056 1.104.272.464.408 1.064.408 1.8 0 .752-.144 1.384-.432 1.896a3.449 3.449 0 0 1-1.152 1.2c-.48.304-1.024.52-1.632.648a8.946 8.946 0 0 1-1.848.192Zm18.046-1.152c-.176.112-.392.24-.648.384-.256.128-.56.248-.912.36-.352.112-.76.208-1.224.288a9.39 9.39 0 0 1-1.584.12c-2.288 0-4-.568-5.136-1.704-1.12-1.136-1.68-2.728-1.68-4.776 0-1.008.152-1.912.456-2.712.304-.8.728-1.472 1.272-2.016a5.332 5.332 0 0 1 1.944-1.272c.752-.304 1.576-.456 2.472-.456.928 0 1.76.152 2.496.456.752.304 1.368.76 1.848 1.368.48.608.808 1.36.984 2.256.192.896.2 1.944.024 3.144h-8.616c.112 1.136.488 1.992 1.128 2.568.64.56 1.64.84 3 .84.992 0 1.816-.12 2.472-.36.672-.256 1.24-.52 1.704-.792v2.304Zm-5.04-9.576c-.816 0-1.504.248-2.064.744s-.928 1.232-1.104 2.208h5.856c.032-1.008-.192-1.752-.672-2.232-.48-.48-1.152-.72-2.016-.72Zm15.005.72c-.912-.016-1.736.128-2.472.432s-1.296.784-1.68 1.44V18h-2.784V5.544h2.544l.192 2.592h.048c.4-.768.944-1.408 1.632-1.92.704-.512 1.544-.816 2.52-.912v2.928ZM151.911 18h-3.792l-4.248-12.456h2.928l3.336 10.2 3.408-10.2h2.616L151.911 18Zm16.346-.912c-.176.112-.392.24-.648.384-.256.128-.56.248-.912.36-.352.112-.76.208-1.224.288a9.39 9.39 0 0 1-1.584.12c-2.288 0-4-.568-5.136-1.704-1.12-1.136-1.68-2.728-1.68-4.776 0-1.008.152-1.912.456-2.712.304-.8.728-1.472 1.272-2.016a5.332 5.332 0 0 1 1.944-1.272c.752-.304 1.576-.456 2.472-.456.928 0 1.76.152 2.496.456.752.304 1.368.76 1.848 1.368.48.608.808 1.36.984 2.256.192.896.2 1.944.024 3.144h-8.616c.112 1.136.488 1.992 1.128 2.568.64.56 1.64.84 3 .84.992 0 1.816-.12 2.472-.36.672-.256 1.24-.52 1.704-.792v2.304Zm-5.04-9.576c-.816 0-1.504.248-2.064.744s-.928 1.232-1.104 2.208h5.856c.032-1.008-.192-1.752-.672-2.232-.48-.48-1.152-.72-2.016-.72Zm15.006.72c-.912-.016-1.736.128-2.472.432s-1.296.784-1.68 1.44V18h-2.784V5.544h2.544l.192 2.592h.048c.4-.768.944-1.408 1.632-1.92.704-.512 1.544-.816 2.52-.912v2.928Z" fill="#7F8285"/></svg>